<?xml version="1.0" standalone="no"?>
<!DOCTYPE svg PUBLIC "-//W3C//DTD SVG 20010904//EN"
 "http://www.w3.org/TR/2001/REC-SVG-20010904/DTD/svg10.dtd">
<svg version="1.0" xmlns="http://www.w3.org/2000/svg"
 width="600.000000pt" height="600.000000pt" viewBox="0 0 600.000000 600.000000"
 preserveAspectRatio="xMidYMid meet">
<metadata>
Created by potrace 1.11, written by Peter Selinger 2001-2013
</metadata>
<g transform="translate(0.000000,600.000000) scale(0.100000,-0.100000)"
fill="#000000" stroke="none">
<path d="M1416 5601 c-6 -13 1 -1821 7 -1876 25 -222 73 -394 163 -582 30 -62
54 -116 54 -120 0 -3 -20 -46 -44 -94 -65 -127 -136 -341 -152 -453 -2 -17 -6
-42 -9 -56 -16 -77 -19 -260 -19 -1075 l-1 -900 900 1 c495 0 934 3 975 7 455
42 873 262 1171 617 166 198 306 488 355 735 28 141 38 238 38 360 -1 81 -12
244 -19 255 -2 3 -6 26 -9 50 -14 117 -86 332 -157 470 -22 42 -39 80 -39 84
0 5 22 55 49 110 46 92 117 286 127 343 5 28 9 52 24 123 28 139 31 410 6 540
-3 14 -7 41 -10 60 -6 41 -42 177 -56 214 -5 14 -7 26 -4 26 4 0 2 6 -3 13 -6
6 -20 39 -32 72 -48 130 -168 335 -268 455 -56 68 -206 214 -271 263 -80 61
-280 187 -297 187 -3 0 -28 11 -57 24 -109 50 -250 96 -337 111 -19 3 -37 8
-41 10 -3 2 -28 6 -55 9 -28 4 -66 9 -85 12 -44 8 -1900 12 -1904 5z m1895
-706 c423 -75 747 -397 834 -830 21 -102 9 -354 -20 -440 -4 -11 -9 -25 -11
-32 -2 -8 -22 0 -56 23 -68 45 -280 149 -338 165 -25 7 -50 16 -55 20 -14 10
-139 40 -245 59 -161 28 -423 30 -551 5 -13 -3 -37 -8 -54 -11 -193 -35 -457
-140 -608 -241 -25 -18 -48 -29 -50 -25 -4 7 -16 49 -24 82 -23 103 -23 326 0
425 9 39 19 81 23 95 9 43 73 179 110 238 39 60 104 143 140 177 77 72 108 96
178 143 205 134 483 190 727 147z m39 -1728 c108 -25 220 -68 306 -119 l36
-21 -38 -24 c-91 -56 -252 -114 -363 -130 -73 -11 -281 -7 -346 6 -117 24
-240 70 -323 122 l-42 27 52 29 c105 60 235 105 339 119 24 3 46 8 48 10 10 9
274 -6 331 -19z m-995 -811 c208 -104 387 -156 620 -182 50 -6 276 -4 340 2
83 8 225 37 315 65 41 12 77 23 80 24 3 1 18 7 33 13 16 7 30 12 33 12 14 0
208 99 265 136 l69 44 11 -27 c23 -60 36 -183 33 -303 -1 -69 -6 -136 -9 -150
-4 -14 -8 -32 -9 -40 -14 -88 -100 -293 -148 -355 -168 -217 -319 -331 -526
-400 -123 -41 -212 -53 -358 -50 -105 3 -152 9 -230 30 -188 51 -378 168 -499
307 -33 38 -65 75 -71 81 -12 13 -94 153 -94 160 0 2 -10 26 -22 53 -12 27
-23 55 -25 62 -2 6 -5 20 -7 30 -3 9 -5 17 -6 17 -3 0 -9 28 -23 105 -19 98
-15 302 8 395 9 38 19 73 21 77 3 4 28 -8 57 -27 29 -19 93 -55 142 -79z"/>
</g>
</svg>
